<?xml version="1.0" encoding="UTF-8" standalone="no"?>
<!-- Generator: Adobe Illustrator 22.1.0, SVG Export Plug-In . SVG Version: 6.00 Build 0)  -->

<svg
   xmlns:dc="http://purl.org/dc/elements/1.1/"
   xmlns:cc="http://creativecommons.org/ns#"
   xmlns:rdf="http://www.w3.org/1999/02/22-rdf-syntax-ns#"
   xmlns:svg="http://www.w3.org/2000/svg"
   xmlns="http://www.w3.org/2000/svg"
   xmlns:sodipodi="http://sodipodi.sourceforge.net/DTD/sodipodi-0.dtd"
   xmlns:inkscape="http://www.inkscape.org/namespaces/inkscape"
   version="1.1"
   id="Layer_1"
   x="0px"
   y="0px"
   viewBox="0 0 50 50"
   style="enable-background:new 0 0 50 50;"
   xml:space="preserve"
   sodipodi:docname="blanket.svg"
   inkscape:version="0.92.1 r15371"><metadata
   id="metadata9"><rdf:RDF><cc:Work
       rdf:about=""><dc:format>image/svg+xml</dc:format><dc:type
         rdf:resource="http://purl.org/dc/dcmitype/StillImage" /><dc:title></dc:title></cc:Work></rdf:RDF></metadata><defs
   id="defs7" /><sodipodi:namedview
   pagecolor="#ffffff"
   bordercolor="#666666"
   borderopacity="1"
   objecttolerance="10"
   gridtolerance="10"
   guidetolerance="10"
   inkscape:pageopacity="0"
   inkscape:pageshadow="2"
   inkscape:window-width="1920"
   inkscape:window-height="1057"
   id="namedview5"
   showgrid="false"
   inkscape:zoom="4.72"
   inkscape:cx="25"
   inkscape:cy="25"
   inkscape:window-x="1912"
   inkscape:window-y="-8"
   inkscape:window-maximized="1"
   inkscape:current-layer="Layer_1" />

<g
   style="fill:#c9c3c1;fill-opacity:1"
   id="g4505"
   transform="matrix(0.29838983,0,0,0.29838983,23.957759,21.471476)"><path
     style="fill:#c9c3c1;fill-opacity:1"
     id="path2-2"
     d="m 44.707324,-21.356685 c -32.67,-0.267 -39.7259997,-8.789 -53.6329997,-8.789 -16.5490043,0 -26.2630043,4.551 -30.4300043,7.116 -3.086,1.66 -2.37,-1.537 -2.37,-2.65 0,-1.12 1.836,-2.207 1.836,-2.207 3.828,-2.48 13.672,-7.447999 30.9630043,-7.447999 13.932,0 21.0019997,8.554999 53.7899997,8.788999 0,0 2.5,-0.254 2.5,1.979 0,2.233 -0.156,3.21 -2.656,3.21 z"
     inkscape:connector-curvature="0" /><path
     style="fill:#c9c3c1;fill-opacity:1"
     id="path4"
     d="m 47.363324,61.455316 c 0,-2.232 -2.5,-1.979 -2.5,-1.979 -32.787,-0.241 -39.8569997,-8.789 -53.7899997,-8.789 -17.2920043,0 -27.1350043,4.967 -30.9630043,7.447 0,0 -1.836,1.088 -1.836,2.207 0,1.113 -0.716,4.311 2.37,2.637 4.167,-2.552 13.88,-7.103 30.4300043,-7.115 13.907,0 20.9629997,8.535 53.6329997,8.802 2.5,0 2.656,-0.977 2.656,-3.21 z"
     inkscape:connector-curvature="0" /><path
     style="fill:#c9c3c1;fill-opacity:1"
     id="path6"
     d="m 47.363324,-13.947684 c 0,-2.233001 -2.5,-1.979001 -2.5,-1.979001 -32.787,-0.241 -39.8569997,-8.789 -53.7899997,-8.789 -17.2920043,0 -27.1350043,4.967 -30.9630043,7.448 0,0 -1.836,1.087 -1.836,2.207 v 64.648001 c 0,1.113 -0.716,4.31 2.37,2.649 4.167,-2.571 13.88,-7.115 30.4300043,-7.115 13.907,0 20.9629997,8.521 53.6329997,8.789 2.5,0 2.656,-0.977 2.656,-3.21 z"
     inkscape:connector-curvature="0" /></g></svg>