<?xml version="1.0" encoding="utf-8"?>
<!-- Generator: Adobe Illustrator 23.0.3, SVG Export Plug-In . SVG Version: 6.00 Build 0)  -->
<svg version="1.1" id="Layer_1" xmlns="http://www.w3.org/2000/svg" xmlns:xlink="http://www.w3.org/1999/xlink" x="0px" y="0px"
	 viewBox="0 0 50 50" style="enable-background:new 0 0 50 50;" xml:space="preserve">
<style type="text/css">
	.st0{fill:#C9C3C1;}
</style>
<g id="g4505" transform="matrix(0.29838983,0,0,0.29838983,23.957759,21.471476)">
	<path id="path2-2" class="st0" d="M45.4-24.2C12.7-24.5,5.7-33-8.2-33c-16.5,0-26.3,4.6-30.4,7.1c-3.1,1.7-2.4-1.5-2.4-2.6
		c0-1.1,1.8-2.2,1.8-2.2c3.8-2.5,13.7-7.4,31-7.4c13.9,0,21,8.6,53.8,8.8c0,0,2.5-0.3,2.5,2S47.9-24.2,45.4-24.2z"/>
	<path id="path4" class="st0" d="M48.1,58.6c0-2.2-2.5-2-2.5-2c-32.8-0.2-39.9-8.8-53.8-8.8c-17.3,0-27.1,5-31,7.4
		c0,0-1.8,1.1-1.8,2.2c0,1.1-0.7,4.3,2.4,2.6c4.2-2.6,13.9-7.1,30.4-7.1c13.9,0,21,8.5,53.6,8.8C47.9,61.8,48.1,60.8,48.1,58.6z"/>
	<path id="path6" class="st0" d="M48.1-16.8c0-2.2-2.5-2-2.5-2C12.8-19,5.7-27.6-8.2-27.6c-17.3,0-27.1,5-31,7.4
		c0,0-1.8,1.1-1.8,2.2v64.6c0,1.1-0.7,4.3,2.4,2.6c4.2-2.6,13.9-7.1,30.4-7.1c13.9,0,21,8.5,53.6,8.8c2.5,0,2.7-1,2.7-3.2L48.1-16.8
		z"/>
</g>
</svg>
