<?xml version="1.0" encoding="UTF-8" standalone="no"?>
<svg
   xmlns:dc="http://purl.org/dc/elements/1.1/"
   xmlns:cc="http://creativecommons.org/ns#"
   xmlns:rdf="http://www.w3.org/1999/02/22-rdf-syntax-ns#"
   xmlns:svg="http://www.w3.org/2000/svg"
   xmlns="http://www.w3.org/2000/svg"
   xmlns:sodipodi="http://sodipodi.sourceforge.net/DTD/sodipodi-0.dtd"
   xmlns:inkscape="http://www.inkscape.org/namespaces/inkscape"
   width="100"
   height="100"
   viewBox="0 0 100 100"
   version="1.1"
   id="svg14"
   sodipodi:docname="Blanket.svg"
   inkscape:version="0.92.1 r15371">
  <metadata
     id="metadata20">
    <rdf:RDF>
      <cc:Work
         rdf:about="">
        <dc:format>image/svg+xml</dc:format>
        <dc:type
           rdf:resource="http://purl.org/dc/dcmitype/StillImage" />
        <dc:title></dc:title>
      </cc:Work>
    </rdf:RDF>
  </metadata>
  <defs
     id="defs18" />
  <sodipodi:namedview
     pagecolor="#ffffff"
     bordercolor="#666666"
     borderopacity="1"
     objecttolerance="10"
     gridtolerance="10"
     guidetolerance="10"
     inkscape:pageopacity="0"
     inkscape:pageshadow="2"
     inkscape:window-width="800"
     inkscape:window-height="480"
     id="namedview16"
     showgrid="false"
     inkscape:zoom="2.36"
     inkscape:cx="50"
     inkscape:cy="50"
     inkscape:window-x="64"
     inkscape:window-y="89"
     inkscape:window-maximized="0"
     inkscape:current-layer="svg14" />
  <g
     id="g12"
     style="fill:#c9c3c1;fill-opacity:1">
    <g
       transform="translate(50 50) scale(0.69 0.69) rotate(0) translate(-50 -50)"
       style="fill:#c9c3c1;fill-opacity:1"
       id="g10">
      <svg
         fill="#e20a16"
         version="1.1"
         x="0px"
         y="0px"
         viewBox="0 0 100 100"
         enable-background="new 0 0 100 100"
         xml:space="preserve"
         id="svg8"
         style="fill:#c9c3c1;fill-opacity:1"><path
           d="M91.993,13.647C59.323,13.38,52.267,4.858,38.36,4.858c-16.549,0-26.263,4.551-30.43,7.116  c-3.086,1.66-2.37-1.537-2.37-2.65c0-1.12,1.836-2.207,1.836-2.207c3.828-2.48,13.672-7.448,30.963-7.448  c13.932,0,21.002,8.555,53.79,8.789c0,0,2.5-0.254,2.5,1.979C94.649,12.67,94.493,13.647,91.993,13.647z"
           id="path2"
           style="fill:#c9c3c1;fill-opacity:1" /><path
           d="M94.649,96.459c0-2.232-2.5-1.979-2.5-1.979c-32.787-0.241-39.857-8.789-53.79-8.789c-17.292,0-27.135,4.967-30.963,7.447  c0,0-1.836,1.088-1.836,2.207c0,1.113-0.716,4.311,2.37,2.637c4.167-2.552,13.88-7.103,30.43-7.115  c13.907,0,20.963,8.535,53.633,8.802C94.493,99.669,94.649,98.692,94.649,96.459z"
           id="path4"
           style="fill:#c9c3c1;fill-opacity:1" /><path
           d="M94.649,21.056c0-2.233-2.5-1.979-2.5-1.979c-32.787-0.241-39.857-8.789-53.79-8.789c-17.292,0-27.135,4.967-30.963,7.448  c0,0-1.836,1.087-1.836,2.207v64.648c0,1.113-0.716,4.31,2.37,2.649c4.167-2.571,13.88-7.115,30.43-7.115  c13.907,0,20.963,8.521,53.633,8.789c2.5,0,2.656-0.977,2.656-3.21V21.056z"
           id="path6"
           style="fill:#c9c3c1;fill-opacity:1" /></svg>    </g>
  </g>
</svg>
