<?xml version="1.0" encoding="UTF-8" standalone="no"?>
<!-- Generator: Adobe Illustrator 23.0.2, SVG Export Plug-In . SVG Version: 6.00 Build 0)  -->

<svg
   xmlns:dc="http://purl.org/dc/elements/1.1/"
   xmlns:cc="http://creativecommons.org/ns#"
   xmlns:rdf="http://www.w3.org/1999/02/22-rdf-syntax-ns#"
   xmlns:svg="http://www.w3.org/2000/svg"
   xmlns="http://www.w3.org/2000/svg"
   xmlns:sodipodi="http://sodipodi.sourceforge.net/DTD/sodipodi-0.dtd"
   xmlns:inkscape="http://www.inkscape.org/namespaces/inkscape"
   version="1.1"
   id="Layer_1"
   x="0px"
   y="0px"
   viewBox="0 0 50 50"
   xml:space="preserve"
   sodipodi:docname="Group.svg"
   width="50"
   height="50"
   inkscape:version="0.92.4 (5da689c313, 2019-01-14)"><metadata
   id="metadata37"><rdf:RDF><cc:Work
       rdf:about=""><dc:format>image/svg+xml</dc:format><dc:type
         rdf:resource="http://purl.org/dc/dcmitype/StillImage" /><dc:title>Asset 928</dc:title></cc:Work></rdf:RDF></metadata><defs
   id="defs35" /><sodipodi:namedview
   pagecolor="#ffffff"
   bordercolor="#666666"
   borderopacity="1"
   objecttolerance="10"
   gridtolerance="10"
   guidetolerance="10"
   inkscape:pageopacity="0"
   inkscape:pageshadow="2"
   inkscape:window-width="1853"
   inkscape:window-height="1057"
   id="namedview33"
   showgrid="false"
   inkscape:zoom="5.9791667"
   inkscape:cx="24"
   inkscape:cy="16"
   inkscape:window-x="59"
   inkscape:window-y="-8"
   inkscape:window-maximized="1"
   inkscape:current-layer="Layer_1" />
<style
   type="text/css"
   id="style13">
	.st0{fill:#E20A16;}
</style>
<title
   id="title15">Asset 928</title>
<g
   id="g30"
   transform="matrix(0.69163763,0,0,0.69163763,8.696864,12.982579)">
	<g
   id="Icons">
		<path
   class="st0"
   d="m 39,15 h -2 c -1.3,0 -2.5,0.3 -3.7,0.8 3.6,2.6 5.7,6.8 5.7,11.2 h 9 v -3 c 0,-5 -4,-9 -9,-9 z"
   id="path17"
   inkscape:connector-curvature="0"
   style="fill:#e20a16" />
		<path
   class="st0"
   d="M 14.7,15.8 C 13.5,15.3 12.3,15 11,15 H 9 c -5,0 -9,4 -9,9 v 3 h 9 c 0,-4.4 2.1,-8.6 5.7,-11.2 z"
   id="path19"
   inkscape:connector-curvature="0"
   style="fill:#e20a16" />
		<path
   class="st0"
   d="m 25,16 h -2 c -6.1,0 -11,4.9 -11,11 v 5 H 36 V 27 C 36,20.9 31.1,16 25,16 Z"
   id="path21"
   inkscape:connector-curvature="0"
   style="fill:#e20a16" />
		<circle
   class="st0"
   cx="24"
   cy="7"
   r="7"
   id="circle23"
   style="fill:#e20a16" />
		<circle
   class="st0"
   cx="10"
   cy="8"
   r="5"
   id="circle25"
   style="fill:#e20a16" />
		<circle
   class="st0"
   cx="38"
   cy="8"
   r="5"
   id="circle27"
   style="fill:#e20a16" />
	</g>
</g>
</svg>