<?xml version="1.0" encoding="UTF-8" standalone="no"?>
<!-- Generator: Adobe Illustrator 23.0.2, SVG Export Plug-In . SVG Version: 6.00 Build 0)  -->

<svg
   xmlns:dc="http://purl.org/dc/elements/1.1/"
   xmlns:cc="http://creativecommons.org/ns#"
   xmlns:rdf="http://www.w3.org/1999/02/22-rdf-syntax-ns#"
   xmlns:svg="http://www.w3.org/2000/svg"
   xmlns="http://www.w3.org/2000/svg"
   xmlns:sodipodi="http://sodipodi.sourceforge.net/DTD/sodipodi-0.dtd"
   xmlns:inkscape="http://www.inkscape.org/namespaces/inkscape"
   version="1.1"
   id="Layer_1"
   x="0px"
   y="0px"
   viewBox="0 0 48 48"
   style="enable-background:new 0 0 48 48;"
   xml:space="preserve"
   sodipodi:docname="Humanitarian-programme-cycle.svg"
   inkscape:version="0.92.4 (5da689c313, 2019-01-14)"><metadata
   id="metadata22"><rdf:RDF><cc:Work
       rdf:about=""><dc:format>image/svg+xml</dc:format><dc:type
         rdf:resource="http://purl.org/dc/dcmitype/StillImage" /></cc:Work></rdf:RDF></metadata><defs
   id="defs20" /><sodipodi:namedview
   pagecolor="#ffffff"
   bordercolor="#666666"
   borderopacity="1"
   objecttolerance="10"
   gridtolerance="10"
   guidetolerance="10"
   inkscape:pageopacity="0"
   inkscape:pageshadow="2"
   inkscape:window-width="1858"
   inkscape:window-height="1057"
   id="namedview18"
   showgrid="false"
   inkscape:zoom="4.9166667"
   inkscape:cx="24"
   inkscape:cy="24"
   inkscape:window-x="54"
   inkscape:window-y="-8"
   inkscape:window-maximized="1"
   inkscape:current-layer="Layer_1" />
<style
   type="text/css"
   id="style2">
	.st0{fill:#E20A16;}
</style>
<title
   id="title4">Asset 744</title>
<g
   id="g15"
   transform="matrix(0.84757689,0,0,0.84757689,3.8553567,3.8712844)">
	<g
   id="Icons">
		<path
   class="st0"
   d="m 38.1,32.1 -0.2,-0.2 c -2,3.5 -5.2,6.1 -9.1,7.4 -0.6,0.2 -1.2,0.3 -1.8,0.5 v 0 C 26.2,40 25.4,40 24.7,40.1 l 0.5,-0.4 c 0.9,-0.7 1,-1.9 0.3,-2.8 -0.4,-0.5 -1,-0.7 -1.6,-0.7 -0.5,0 -0.9,0.2 -1.3,0.4 l -3.5,2.8 -1.5,1.2 c -0.5,0.4 -0.7,1 -0.8,1.6 0,0.3 0.1,0.5 0.2,0.8 0.1,0.3 0.3,0.6 0.6,0.8 l 5,4 c 0.4,0.3 0.8,0.4 1.3,0.4 1.1,0 2,-0.9 2,-2 0,-0.6 -0.3,-1.2 -0.7,-1.6 L 24.7,44 c 0.7,0 1.4,-0.1 2,-0.2 0.5,-0.1 1.1,-0.2 1.6,-0.3 5.5,-1.2 10.2,-4.7 13,-9.6 -1.2,-0.1 -2.4,-0.8 -3.2,-1.8 z"
   id="path6"
   inkscape:connector-curvature="0"
   style="fill:#e20a16" />
		<path
   class="st0"
   d="m 9.9,15.9 0.2,0.2 c 2,-3.5 5.2,-6.1 9.1,-7.4 0.6,-0.2 1.2,-0.3 1.8,-0.4 v 0 C 21.8,8.1 22.6,8.1 23.3,8 l -0.5,0.4 c -0.9,0.7 -1,1.9 -0.3,2.8 0.4,0.5 1,0.7 1.6,0.7 0.5,0 0.9,-0.2 1.3,-0.4 L 28.9,8.7 30.4,7.5 C 30.7,7.2 31,6.6 31,6 31,5.7 30.9,5.5 30.8,5.2 30.7,4.9 30.5,4.6 30.2,4.4 l -5,-4 C 24.9,0.2 24.5,0 24,0 c -1.1,0 -2,0.9 -2,2 0,0.6 0.3,1.2 0.7,1.6 L 23.3,4 c -0.7,0 -1.4,0.1 -2.1,0.2 -0.5,0.1 -1.1,0.2 -1.6,0.3 -5.5,1.2 -10.2,4.7 -13,9.6 1.3,0.1 2.5,0.8 3.3,1.8 z"
   id="path8"
   inkscape:connector-curvature="0"
   style="fill:#e20a16" />
		<path
   class="st0"
   d="M 8.7,28.8 C 8.3,27.5 8,26.1 8,24.7 l 0.4,0.5 c 0.4,0.5 1,0.8 1.6,0.8 0.5,0 0.9,-0.2 1.3,-0.4 0.9,-0.7 1,-1.9 0.3,-2.8 L 8.8,19.3 7.6,17.8 C 7.2,17.3 6.6,17 6,17 5.7,17 5.4,17.1 5.2,17.2 4.9,17.3 4.6,17.5 4.4,17.7 l -4,5 c -0.7,0.9 -0.6,2.1 0.3,2.8 C 1.1,25.8 1.5,26 2,26 2.6,26 3.2,25.7 3.6,25.2 L 4,24.7 c 0,0.7 0.1,1.4 0.2,2 0.1,0.5 0.2,1.1 0.3,1.6 1.2,5.5 4.7,10.2 9.6,13 0.2,-1.3 0.8,-2.4 1.8,-3.2 l 0.2,-0.2 C 12.6,35.9 10,32.7 8.7,28.8 Z"
   id="path10"
   inkscape:connector-curvature="0"
   style="fill:#e20a16" />
		<path
   class="st0"
   d="M 47.2,22.4 C 46.9,22.2 46.5,22 46,22 c -0.6,0 -1.2,0.3 -1.6,0.8 L 44,23.3 c 0,-0.7 -0.1,-1.4 -0.2,-2 C 43.7,20.8 43.6,20.2 43.5,19.7 42.3,14.2 38.8,9.5 33.9,6.7 33.7,8 33.1,9.1 32.1,9.9 l -0.2,0.2 c 3.5,2 6.1,5.2 7.4,9.1 0.4,1.3 0.7,2.7 0.7,4.1 l -0.4,-0.5 c -0.4,-0.5 -1,-0.8 -1.6,-0.7 -0.5,0 -0.9,0.2 -1.3,0.4 -0.9,0.7 -1,1.9 -0.3,2.8 l 2.8,3.5 1.2,1.5 c 0.4,0.5 1,0.7 1.6,0.8 0.3,0 0.5,-0.1 0.8,-0.2 0.3,-0.1 0.6,-0.3 0.8,-0.6 l 4,-5 c 0.6,-0.9 0.5,-2.2 -0.4,-2.9 z"
   id="path12"
   inkscape:connector-curvature="0"
   style="fill:#e20a16" />
	</g>
</g>
</svg>