<?xml version="1.0" encoding="UTF-8" standalone="no"?>
<!-- Generator: Adobe Illustrator 23.0.2, SVG Export Plug-In . SVG Version: 6.00 Build 0)  -->

<svg
   xmlns:dc="http://purl.org/dc/elements/1.1/"
   xmlns:cc="http://creativecommons.org/ns#"
   xmlns:rdf="http://www.w3.org/1999/02/22-rdf-syntax-ns#"
   xmlns:svg="http://www.w3.org/2000/svg"
   xmlns="http://www.w3.org/2000/svg"
   xmlns:sodipodi="http://sodipodi.sourceforge.net/DTD/sodipodi-0.dtd"
   xmlns:inkscape="http://www.inkscape.org/namespaces/inkscape"
   version="1.1"
   id="Layer_1"
   x="0px"
   y="0px"
   viewBox="0 0 50 50"
   xml:space="preserve"
   sodipodi:docname="Leadership.svg"
   inkscape:version="0.92.4 (5da689c313, 2019-01-14)"
   width="50"
   height="50"><metadata
   id="metadata26"><rdf:RDF><cc:Work
       rdf:about=""><dc:format>image/svg+xml</dc:format><dc:type
         rdf:resource="http://purl.org/dc/dcmitype/StillImage" /><dc:title>Asset 749</dc:title></cc:Work></rdf:RDF></metadata><defs
   id="defs24" /><sodipodi:namedview
   pagecolor="#ffffff"
   bordercolor="#666666"
   borderopacity="1"
   objecttolerance="10"
   gridtolerance="10"
   guidetolerance="10"
   inkscape:pageopacity="0"
   inkscape:pageshadow="2"
   inkscape:window-width="1853"
   inkscape:window-height="1057"
   id="namedview22"
   showgrid="false"
   inkscape:zoom="5.9791667"
   inkscape:cx="24"
   inkscape:cy="16"
   inkscape:window-x="59"
   inkscape:window-y="-8"
   inkscape:window-maximized="1"
   inkscape:current-layer="Icons" />
<style
   type="text/css"
   id="style2">
	.st0{fill:#E20A16;}
</style>
<title
   id="title4">Asset 749</title>
<g
   id="g19"
   transform="matrix(0.55731053,0,0,0.55731053,11.372822,24.355401)">
	<g
   id="Icons">
		
		
		
		
		
		<g
   id="g34"
   transform="matrix(1.1813928,0,0,1.1813928,-4.5014596,-22.309919)"><path
     style="fill:#e20a16"
     inkscape:connector-curvature="0"
     id="path6"
     d="m 12.2,17.8 c 0.2,-1.4 0.7,-2.7 1.4,-3.8 0.4,-0.6 0.8,-1.2 1.3,-1.8 0.2,-0.2 0.3,-0.4 0.5,-0.6 C 13.8,10.6 11.9,10 10,10 4.5,10 0,14.5 0,20 c 0,3.6 1.9,6.9 5,8.6 V 30 c 0,1.1 0.9,2 2,2 h 6 c 1.1,0 2,-0.9 2,-2 0,0 0,0 0,0 V 27.9 C 14.5,27.3 14,26.7 13.6,26 12.2,23.5 11.7,20.6 12.2,17.8 Z M 3,20 c 0,-1.8 0.7,-3.6 2,-4.9 v 9.8 C 3.7,23.6 3,21.8 3,20 Z"
     class="st0" /><circle
     style="fill:#e20a16"
     id="circle8"
     r="4"
     cy="4"
     cx="10"
     class="st0" /><circle
     style="fill:#e20a16"
     id="circle10"
     r="4"
     cy="4"
     cx="38"
     class="st0" /><path
     style="fill:#e20a16"
     inkscape:connector-curvature="0"
     id="path12"
     d="m 38,10 c -1.9,0 -3.8,0.6 -5.4,1.6 0.2,0.2 0.4,0.4 0.5,0.6 0.5,0.6 0.9,1.1 1.3,1.8 2.1,3.7 2.1,8.3 0,12 -0.4,0.7 -0.9,1.3 -1.4,1.9 V 30 c 0,1.1 0.9,2 2,2 h 6 c 1.1,0 2,-0.9 2,-2 v -1.4 c 4.8,-2.8 6.4,-8.9 3.6,-13.7 -1.7,-3 -5,-4.9 -8.6,-4.9 z m 5,14.9 v -9.8 c 2.7,2.7 2.7,7.1 0,9.8 z"
     class="st0" /><circle
     style="fill:#e20a16"
     id="circle14"
     r="4"
     cy="4"
     cx="24"
     class="st0" /><path
     style="fill:#e20a16"
     inkscape:connector-curvature="0"
     id="path16"
     d="M 34,20 C 34,18.5 33.7,17 33,15.7 32.9,15.6 32.9,15.4 32.8,15.3 32.3,14.4 31.7,13.6 31,12.9 29.1,11 26.6,10 24,10 c -0.6,0 -1.3,0.1 -1.9,0.2 -1.9,0.4 -3.7,1.3 -5.1,2.7 -0.7,0.7 -1.3,1.5 -1.8,2.4 -0.1,0.1 -0.1,0.2 -0.2,0.4 -0.4,0.8 -0.7,1.7 -0.8,2.5 -0.4,2.1 -0.1,4.2 0.8,6.1 0.1,0.1 0.1,0.3 0.2,0.4 0.9,1.6 2.2,3 3.8,3.9 v 0.5 c 0,0 0,0.1 0,0.1 0,0 0,0 0,0.1 V 30 c 0,1.1 0.9,2 2,2 h 6 c 1.1,0 2,-0.9 2,-2 v -0.7 c 0,0 0,0 0,-0.1 0,-0.1 0,-0.1 0,-0.1 v -0.5 c 0.7,-0.4 1.4,-0.9 2,-1.5 0.7,-0.7 1.3,-1.5 1.8,-2.4 0.1,-0.1 0.1,-0.3 0.2,-0.4 0.6,-1.3 1,-2.8 1,-4.3 z M 19,24.9 C 18.9,24.8 18.9,24.8 18.8,24.7 17.7,23.5 17.1,22 17,20.4 c 0,-0.2 0,-0.5 0,-0.7 0.1,-1.6 0.7,-3.2 1.8,-4.4 0,-0.1 0.1,-0.1 0.2,-0.2 z m 10.2,-0.2 c -0.1,0.1 -0.1,0.1 -0.2,0.2 v -9.8 c 0.1,0.1 0.1,0.1 0.2,0.2 1.1,1.2 1.8,2.8 1.8,4.4 0,0.2 0,0.4 0,0.5 -0.1,1.7 -0.7,3.3 -1.8,4.5 z"
     class="st0" /></g>
	</g>
</g>
</svg>